<svg xmlns="http://www.w3.org/2000/svg" viewBox="39.1300048828125 49.99999999999993 496.739990234375 475.00304883670816"> <g transform="rotate(0 287.5 197.5234027406952)"><svg xmlns="http://www.w3.org/2000/svg" xmlns:xlink="http://www.w3.org/1999/xlink" version="1.1" id="Layer_1" x="198.3165951854719" y="119.99999999999993" viewBox="138 302 283 246" xml:space="preserve" height="155.04680548139052" width="178.36680962905618" preserveAspectRatio="xMinYMin" enable-background="new 0 0 595.3 841.9" style="overflow: visible;"><path class="st0" d="M345.4,516.4c17.5-15.3,28.6-37.8,28.6-62.9c0-46.1-37.4-83.5-83.5-83.5S207,407.4,207,453.5  s37.4,83.5,83.5,83.5c11.9,0,23.3-2.5,33.6-7l28.9,18L345.4,516.4z" style="fill-rule: evenodd; clip-rule: evenodd; fill: #05deff; fill-opacity: 1;"></path><circle class="st1" cx="221.5" cy="389.5" r="83.5" style="fill: #EE3765; fill-opacity: 1;"></circle><circle class="st2" cx="321" cy="343" r="41" style="fill: #05deff; fill-opacity: 1;"></circle><circle class="st3" cx="364" cy="403" r="57" style="fill: #FBDF02; fill-opacity: 1;"></circle><circle class="st1" cx="386.5" cy="316.5" r="12.5" style="fill: #FFFFFF; fill-opacity: 1;"></circle><path class="st4" d="M248.5,350.8c0.6-5.5,5.2-9.8,10.9-9.8c1.6,0,3.1,0.4,4.5,1l94.2,54.5c2.9,2,4.8,5.3,4.8,9.1  c0,3.8-1.9,7.1-4.8,9l-94.4,54.5c-1.3,0.6-2.8,0.9-4.4,0.9c-5.6,0-10.3-4.3-10.9-9.8V350.8z" style="fill-rule: evenodd; clip-rule: evenodd; fill: #ffffff; fill-opacity: 1;"></path></svg></g> <g transform="rotate(0 287.5 444.32304948520664)"><svg xmlns="http://www.w3.org/2000/svg" y="433.6430501337052" viewBox="2.3299999237060547 10.670000076293945 250.3000030517578 21.35999870300293" x="162.3499984741211" height="21.35999870300293" width="250.3000030517578" style="overflow: visible;"><g fill="#ffffff" fill-opacity="1" style=""><path d="M8.91 10.70Q12.36 10.70 14.89 11.98Q17.42 13.27 18.77 15.67Q20.12 18.06 20.12 21.30L20.12 21.30Q20.12 24.54 18.77 26.92Q17.42 29.30 14.89 30.56Q12.36 31.82 8.91 31.82L8.91 31.82L2.33 31.82L2.33 10.70L8.91 10.70ZM8.91 29.54Q13.00 29.54 15.15 27.38Q17.30 25.21 17.30 21.30L17.30 21.30Q17.30 17.36 15.14 15.15Q12.97 12.94 8.91 12.94L8.91 12.94L5.09 12.94L5.09 29.54L8.91 29.54ZM49.26 12.94L40.65 12.94L40.65 20.00L48.35 20.00L48.35 22.27L40.65 22.27L40.65 29.54L49.26 29.54L49.26 31.82L37.90 31.82L37.90 10.67L49.26 10.67L49.26 12.94ZM67.52 10.70L70.28 10.70L70.28 24.06Q70.28 26.88 71.66 28.24Q73.03 29.60 75.49 29.60L75.49 29.60Q77.91 29.60 79.29 28.24Q80.67 26.88 80.67 24.06L80.67 24.06L80.67 10.70L83.43 10.70L83.43 24.03Q83.43 26.66 82.37 28.47Q81.31 30.27 79.50 31.15Q77.70 32.03 75.46 32.03L75.46 32.03Q73.22 32.03 71.41 31.15Q69.61 30.27 68.57 28.47Q67.52 26.66 67.52 24.03L67.52 24.03L67.52 10.70ZM124.40 10.70L136.34 10.70L136.34 12.94L127.16 12.94L127.16 20.06L134.62 20.06L134.62 22.30L127.16 22.30L127.16 31.82L124.40 31.82L124.40 10.70ZM165.18 12.94L156.57 12.94L156.57 20.00L164.27 20.00L164.27 22.27L156.57 22.27L156.57 29.54L165.18 29.54L165.18 31.82L153.82 31.82L153.82 10.67L165.18 10.67L165.18 12.94ZM197.68 31.82L195.98 27.12L186.77 27.12L185.08 31.82L182.17 31.82L189.80 10.82L192.99 10.82L200.59 31.82L197.68 31.82ZM187.56 24.88L195.20 24.88L191.38 14.21L187.56 24.88ZM216.76 10.70L231.06 10.70L231.06 12.94L225.31 12.94L225.31 31.82L222.55 31.82L222.55 12.94L216.76 12.94L216.76 10.70ZM249.20 10.70L252.17 10.70L251.84 25.85L249.54 25.85L249.20 10.70ZM250.81 32.00Q250.02 32.00 249.48 31.45Q248.93 30.91 248.93 30.12L248.93 30.12Q248.93 29.33 249.48 28.79Q250.02 28.24 250.81 28.24L250.81 28.24Q251.57 28.24 252.10 28.79Q252.63 29.33 252.63 30.12L252.63 30.12Q252.63 30.91 252.10 31.45Q251.57 32.00 250.81 32.00L250.81 32.00Z" transform="translate(0, 0)"></path></g></svg></g> <g transform="rotate(0 287.5 354.62496523513784)"><svg xmlns="http://www.w3.org/2000/svg" y="301.2299609626769" viewBox="-0.12000000476837158 52.119998931884766 356.739990234375 106.79000854492188" x="109.1300048828125" height="106.79000854492188" width="356.739990234375" style="overflow: visible;"><g fill="#ffffff" fill-opacity="1" style=""><path d="M107.52 57.46Q110.91 57.94 112.19 59.52Q113.46 61.09 113.46 63.64L113.46 63.64Q113.46 72.00 104.49 71.40L104.49 71.40L100.25 71.03Q93.09 70.43 86.00 70.06Q78.91 69.70 71.15 69.70L71.15 69.70L65.70 69.70Q64.24 87.64 62.67 102.43L62.67 102.43L83.52 102.06Q88.00 102.06 89.52 103.64Q91.03 105.22 91.03 107.88L91.03 107.88Q91.03 112.00 88.61 114.37Q86.18 116.73 81.70 116.73L81.70 116.73L60.97 116.73L60.24 121.94Q57.70 141.94 49.40 150.43Q41.09 158.91 26.55 158.91L26.55 158.91Q18.30 158.91 11.39 155.34Q4.48 151.76 1.21 146.67L1.21 146.67Q-0.12 144.61-0.12 141.70L-0.12 141.70Q-0.12 138.79 1.27 136.61Q2.67 134.43 4.73 134.43L4.73 134.43Q6.18 134.43 7.58 135.40Q8.97 136.37 11.15 139.16L11.15 139.16Q16.97 146.79 25.58 146.79L25.58 146.79Q32.49 146.79 37.15 141.16Q41.82 135.52 43.15 123.40L43.15 123.40L43.88 116.73L38.06 116.73Q35.27 116.73 33.27 115.16Q31.27 113.58 31.27 110.67L31.27 110.67Q31.27 106.91 33.21 104.91Q35.15 102.91 38.91 102.91L38.91 102.91Q42.30 102.91 45.58 102.79L45.58 102.79Q47.03 89.46 48.73 70.43L48.73 70.43Q35.64 71.64 30.30 74.67Q24.97 77.70 24.97 83.64L24.97 83.64Q24.97 87.76 27.39 91.52L27.39 91.52Q28.12 92.61 28.12 93.70L28.12 93.70Q28.12 95.88 25.70 97.52Q23.27 99.15 20.24 99.15L20.24 99.15Q16.97 99.15 14.67 97.22L14.67 97.22Q13.21 96.00 11.88 92.25Q10.55 88.49 10.55 83.88L10.55 83.88Q10.55 68.85 26.00 62.06Q41.46 55.27 71.15 55.27L71.15 55.27Q91.76 55.27 107.52 57.46L107.52 57.46ZM144.97 130.91Q146.55 130.91 147.46 132.37Q148.37 133.82 148.37 136.37L148.37 136.37Q148.37 141.22 146.07 143.88L146.07 143.88Q141.58 149.34 133.40 153.94Q125.22 158.55 115.88 158.55L115.88 158.55Q103.15 158.55 96.12 151.64Q89.09 144.73 89.09 132.73L89.09 132.73Q89.09 124.37 92.61 117.16Q96.12 109.94 102.37 105.70Q108.61 101.46 116.49 101.46L116.49 101.46Q123.52 101.46 127.76 105.64Q132.00 109.82 132.00 116.97L132.00 116.97Q132.00 125.34 126.00 131.34Q120.00 137.34 105.70 140.85L105.70 140.85Q108.73 146.43 117.22 146.43L117.22 146.43Q122.67 146.43 129.64 142.61Q136.61 138.79 141.70 132.61L141.70 132.61Q143.16 130.91 144.97 130.91L144.97 130.91ZM114.43 113.34Q109.94 113.34 106.85 118.55Q103.76 123.76 103.76 131.16L103.76 131.16L103.76 131.40Q110.91 129.70 115.03 126.31Q119.16 122.91 119.16 118.43L119.16 118.43Q119.16 116.13 117.88 114.73Q116.61 113.34 114.43 113.34L114.43 113.34ZM152.85 158.55Q145.34 158.55 140.85 153.10Q136.37 147.64 136.37 138.79L136.37 138.79Q136.37 129.10 140.85 120.43Q145.34 111.76 152.79 106.49Q160.25 101.22 168.61 101.22L168.61 101.22Q171.28 101.22 172.19 102.25Q173.10 103.28 173.70 105.94L173.70 105.94Q176.25 105.46 179.04 105.46L179.04 105.46Q184.98 105.46 184.98 109.70L184.98 109.70Q184.98 112.25 183.16 121.82L183.16 121.82Q180.37 135.76 180.37 141.22L180.37 141.22Q180.37 143.04 181.28 144.13Q182.19 145.22 183.64 145.22L183.64 145.22Q185.95 145.22 189.22 142.25Q192.49 139.28 198.07 132.61L198.07 132.61Q199.52 130.91 201.34 130.91L201.34 130.91Q202.92 130.91 203.82 132.37Q204.73 133.82 204.73 136.37L204.73 136.37Q204.73 141.22 202.43 143.88L202.43 143.88Q197.46 150.07 191.89 154.31Q186.31 158.55 181.10 158.55L181.10 158.55Q177.10 158.55 173.76 155.82Q170.43 153.10 168.73 148.37L168.73 148.37Q162.43 158.55 152.85 158.55L152.85 158.55ZM157.22 146.31Q159.88 146.31 162.31 143.16Q164.73 140.00 165.82 134.79L165.82 134.79L170.31 112.49Q165.22 112.61 160.91 116.31Q156.61 120.00 154.07 126.06Q151.52 132.13 151.52 138.91L151.52 138.91Q151.52 142.67 153.04 144.49Q154.55 146.31 157.22 146.31L157.22 146.31ZM248.98 130.91Q250.55 130.91 251.46 132.37Q252.37 133.82 252.37 136.37L252.37 136.37Q252.37 141.22 250.07 143.88L250.07 143.88Q244.86 150.31 238.67 154.43Q232.49 158.55 224.49 158.55L224.49 158.55Q199.76 158.55 199.76 123.76L199.76 123.76Q199.76 118.43 200.13 112.97L200.13 112.97L195.40 112.97Q191.76 112.97 190.49 111.64Q189.22 110.31 189.22 107.40L189.22 107.40Q189.22 100.61 194.67 100.61L194.67 100.61L201.58 100.61Q203.64 87.28 207.89 76.24Q212.13 65.21 218.13 58.67Q224.13 52.12 231.04 52.12L231.04 52.12Q236.13 52.12 239.04 56.61Q241.95 61.09 241.95 67.88L241.95 67.88Q241.95 86.67 226.19 100.61L226.19 100.61L239.77 100.61Q241.70 100.61 242.55 101.46Q243.40 102.31 243.40 104.61L243.40 104.61Q243.40 112.97 229.70 112.97L229.70 112.97L214.92 112.97Q214.67 119.03 214.67 122.43L214.67 122.43Q214.67 135.03 217.64 140.13Q220.61 145.22 227.04 145.22L227.04 145.22Q232.25 145.22 236.25 142.07Q240.25 138.91 245.71 132.61L245.71 132.61Q247.16 130.91 248.98 130.91L248.98 130.91ZM227.77 63.76Q225.95 63.76 223.70 68.31Q221.46 72.85 219.46 80.91Q217.46 88.97 216.13 98.79L216.13 98.79Q223.28 92.61 226.86 84.91Q230.43 77.21 230.43 70.91L230.43 70.91Q230.43 63.76 227.77 63.76L227.77 63.76ZM296.62 130.91Q298.19 130.91 299.10 132.37Q300.01 133.82 300.01 136.37L300.01 136.37Q300.01 141.22 297.71 143.88L297.71 143.88Q293.22 149.34 285.04 153.94Q276.86 158.55 267.52 158.55L267.52 158.55Q254.80 158.55 247.77 151.64Q240.74 144.73 240.74 132.73L240.74 132.73Q240.74 124.37 244.25 117.16Q247.77 109.94 254.01 105.70Q260.25 101.46 268.13 101.46L268.13 101.46Q275.16 101.46 279.40 105.64Q283.65 109.82 283.65 116.97L283.65 116.97Q283.65 125.34 277.65 131.34Q271.65 137.34 257.34 140.85L257.34 140.85Q260.37 146.43 268.86 146.43L268.86 146.43Q274.31 146.43 281.28 142.61Q288.25 138.79 293.34 132.61L293.34 132.61Q294.80 130.91 296.62 130.91L296.62 130.91ZM266.07 113.34Q261.58 113.34 258.49 118.55Q255.40 123.76 255.40 131.16L255.40 131.16L255.40 131.40Q262.55 129.70 266.68 126.31Q270.80 122.91 270.80 118.43L270.80 118.43Q270.80 116.13 269.52 114.73Q268.25 113.34 266.07 113.34L266.07 113.34ZM298.80 158.55Q294.19 158.55 292.31 153.70Q290.43 148.85 290.43 138.19L290.43 138.19Q290.43 122.43 294.92 108.25L294.92 108.25Q296.01 104.73 298.49 103.09Q300.98 101.46 305.46 101.46L305.46 101.46Q307.89 101.46 308.86 102.06Q309.83 102.67 309.83 104.37L309.83 104.37Q309.83 106.31 308.01 113.09L308.01 113.09Q306.80 117.94 306.07 121.58Q305.34 125.22 304.86 130.55L304.86 130.55Q308.86 120.13 313.83 113.58Q318.80 107.03 323.59 104.25Q328.37 101.46 332.37 101.46L332.37 101.46Q340.25 101.46 340.25 109.34L340.25 109.34Q340.25 110.91 339.16 116.97L339.16 116.97Q338.19 121.82 338.19 123.03L338.19 123.03Q338.19 127.28 341.22 127.28L341.22 127.28Q344.62 127.28 349.95 121.94L349.95 121.94Q351.53 120.37 353.22 120.37L353.22 120.37Q354.80 120.37 355.71 121.76Q356.62 123.16 356.62 125.46L356.62 125.46Q356.62 129.94 354.19 132.49L354.19 132.49Q350.80 136.00 346.25 138.49Q341.71 140.97 336.62 140.97L336.62 140.97Q330.19 140.97 326.86 137.70Q323.53 134.43 323.53 128.85L323.53 128.85Q323.53 127.03 323.89 125.22L323.89 125.22Q324.13 122.79 324.13 121.94L324.13 121.94Q324.13 120.00 322.80 120.00L322.80 120.00Q320.98 120.00 318.01 124.06Q315.04 128.13 312.13 134.79Q309.22 141.46 307.40 148.85L307.40 148.85Q306.07 154.55 304.31 156.55Q302.56 158.55 298.80 158.55L298.80 158.55Z" transform="translate(0, 0)"></path></g></svg></g></svg>